<?xml version="1.0" encoding="UTF-8"?><svg id="Calque_1" xmlns="http://www.w3.org/2000/svg" viewBox="0 0 119.5 131.6"><defs><style>.cls-1{fill:#fff;}</style></defs><path class="cls-1" d="m86.2,0l-6.1,58-10.4-48.9-32.8,6.9,10.3,48.9L0,74.9l8.4,39,83.1,17.7,19-42.5L119.5,3.5,86.2,0h0Zm-26.3,84.2c-1.7,1.6-3.9,1.4-6.4.6-2.4-.8-3.4-3.6-2.6-7.2.7-2.6,3.8-3,5.5-3,.6,0,1.2.1,1.8.4,1.1.5,3,1.6,3.4,3.2.6,2.4,0,4.4-1.7,6h0Zm24.1,2.6c-1.3,2.2-4.5,2.5-7.8.9-2.2-1.1-2.2-3.7-1.9-5.4.1-.9.5-1.8,1.1-2.5.8-1,2.1-2.3,3.5-2.3,2.5-.1,4.5,1,5.7,3,1.2,2,.6,4.2-.6,6.3h0Z"/></svg>