<?xml version="1.0" encoding="utf-8"?>
<!-- Generator: Adobe Illustrator 27.1.1, SVG Export Plug-In . SVG Version: 6.00 Build 0)  -->
<svg version="1.1" id="Calque_1" xmlns="http://www.w3.org/2000/svg" xmlns:xlink="http://www.w3.org/1999/xlink" x="0px" y="0px"
	 viewBox="0 0 151.9 174.2" style="enable-background:new 0 0 151.9 174.2;" xml:space="preserve">
<style type="text/css">
	.st0{fill:#00CCBC;}
</style>
<g id="XMLID_88_">
</g>
<g id="XMLID_89_">
</g>
<g id="XMLID_90_">
</g>
<g id="XMLID_91_">
</g>
<g id="XMLID_92_">
</g>
<g id="XMLID_93_">
</g>
<g id="XMLID_94_">
</g>
<g id="XMLID_95_">
</g>
<g id="XMLID_96_">
</g>
<g id="XMLID_97_">
</g>
<g id="XMLID_98_">
</g>
<g id="XMLID_99_">
</g>
<g id="XMLID_100_">
</g>
<g id="XMLID_101_">
</g>
<g id="XMLID_102_">
</g>
<path class="st0" d="M100.4,24.4l-6.1,58L83.9,33.5l-32.8,6.9l10.3,48.9l-47.2,10l8.4,39l83.1,17.7l19-42.5l9-85.6L100.4,24.4
	L100.4,24.4L100.4,24.4z M74.1,108.6c-1.7,1.6-3.9,1.4-6.4,0.6c-2.4-0.8-3.4-3.6-2.6-7.2c0.7-2.6,3.8-3,5.5-3c0.6,0,1.2,0.1,1.8,0.4
	c1.1,0.5,3,1.6,3.4,3.2C76.4,105,75.8,107,74.1,108.6L74.1,108.6L74.1,108.6L74.1,108.6z M98.2,111.2c-1.3,2.2-4.5,2.5-7.8,0.9
	c-2.2-1.1-2.2-3.7-1.9-5.4c0.1-0.9,0.5-1.8,1.1-2.5c0.8-1,2.1-2.3,3.5-2.3c2.5-0.1,4.5,1,5.7,3C100,106.9,99.4,109.1,98.2,111.2
	L98.2,111.2L98.2,111.2z"/>
</svg>
