<?xml version="1.0" encoding="utf-8"?>
<!-- Generator: Adobe Illustrator 27.1.1, SVG Export Plug-In . SVG Version: 6.00 Build 0)  -->
<svg version="1.1" id="Calque_1" xmlns="http://www.w3.org/2000/svg" xmlns:xlink="http://www.w3.org/1999/xlink" x="0px" y="0px"
	 viewBox="0 0 64 64" style="enable-background:new 0 0 64 64;" xml:space="preserve">
<style type="text/css">
	.st0{fill:#00CDBC;}
</style>
<g id="Setting">
	<path class="st0" d="M4,12h4.1c0.6,4.9,5,8.5,9.9,7.9c4.2-0.5,7.5-3.8,7.9-7.9H60c0.6,0,1-0.4,1-1s-0.4-1-1-1H25.9
		c-0.6-4.9-5-8.5-9.9-7.9C11.8,2.5,8.5,5.8,8.1,10H4c-0.6,0-1,0.4-1,1S3.4,12,4,12z M17,4c3.9,0,7,3.1,7,7s-3.1,7-7,7s-7-3.1-7-7
		C10,7.1,13.1,4,17,4z"/>
	<path class="st0" d="M60,31h-4.1c-0.6-4.9-5-8.5-9.9-7.9c-4.2,0.5-7.5,3.8-7.9,7.9H4c-0.6,0-1,0.4-1,1s0.4,1,1,1h34.1
		c0.6,4.9,5,8.5,9.9,7.9c4.2-0.5,7.5-3.8,7.9-7.9H60c0.6,0,1-0.4,1-1S60.6,31,60,31z M47,39c-3.9,0-7-3.1-7-7s3.1-7,7-7s7,3.1,7,7
		C54,35.9,50.9,39,47,39z"/>
	<path class="st0" d="M60,52H33.9c-0.6-4.9-5-8.5-9.9-7.9c-4.2,0.5-7.5,3.8-7.9,7.9H4c-0.6,0-1,0.4-1,1s0.4,1,1,1h12.1
		c0.6,4.9,5,8.5,9.9,7.9c4.2-0.5,7.5-3.8,7.9-7.9H60c0.6,0,1-0.4,1-1S60.6,52,60,52z M25,60c-3.9,0-7-3.1-7-7s3.1-7,7-7s7,3.1,7,7
		C32,56.9,28.9,60,25,60z"/>
</g>
</svg>
